{
  "accessors": [
    {
      "bufferView": 2,
      "componentType": 5126,
      "count": 373,
      "max": [
        9.7951269149780273,
        24.329166412353516,
        9.6216630935668945
      ],
      "min": [
        -8.9775848388671875,
        -7.7349934577941895,
        -10.019087791442871
      ],
      "type": "VEC3"
    },
    {
      "bufferView": 2,
      "byteOffset": 4476,
      "componentType": 5126,
      "count": 373,
      "max": [
        0.989765465259552,
        0.9999997615814209,
        0.9888385534286499
      ],
      "min": [
        -0.98901546001434326,
        0.1291523277759552,
        -0.98803931474685669
      ],
      "type": "VEC3"
    },
    {
      "bufferView": 3,
      "componentType": 5126,
      "count": 373,
      "max": [
        0.99979943037033081,
        0.77982145547866821,
        0.99602383375167847,
        1
      ],
      "min": [
        -0.73244315385818481,
        -0.79416775703430176,
        -0.99868673086166382,
        1
      ],
      "type": "VEC4"
    },
    {
      "bufferView": 1,
      "componentType": 5126,
      "count": 373,
      "max": [
        0.99666833877563477,
        0.77369248867034912
      ],
      "min": [
        0.0034175515174865723,
        0.21394157409667969
      ],
      "type": "VEC2"
    },
    {
      "bufferView": 0,
      "componentType": 5125,
      "count": 2040,
      "max": [
        372
      ],
      "min": [
        0
      ],
      "type": "SCALAR"
    }
  ],
  "asset": {
    "extras": {
      "author": "Jenna Ward (https://sketchfab.com/Jenna-W)",
      "license": "CC-BY-4.0 (http://creativecommons.org/licenses/by/4.0/)",
      "source": "https://sketchfab.com/3d-models/low-poly-ghost-62e2b3e9db77443b88a7341ac0032e3b",
      "title": "Low Poly Ghost"
    },
    "generator": "Sketchfab-10.29.0",
    "version": "2.0"
  },
  "bufferViews": [
    {
      "buffer": 0,
      "byteLength": 8160,
      "byteOffset": 0,
      "name": "floatBufferViews",
      "target": 34963
    },
    {
      "buffer": 0,
      "byteLength": 2984,
      "byteOffset": 8160,
      "byteStride": 8,
      "name": "floatBufferViews",
      "target": 34962
    },
    {
      "buffer": 0,
      "byteLength": 8952,
      "byteOffset": 11144,
      "byteStride": 12,
      "name": "floatBufferViews",
      "target": 34962
    },
    {
      "buffer": 0,
      "byteLength": 5968,
      "byteOffset": 20096,
      "byteStride": 16,
      "name": "floatBufferViews",
      "target": 34962
    }
  ],
  "buffers": [
    {
      "byteLength": 26064,
      "uri": "scene.bin"
    }
  ],
  "images": [
    {
      "uri": "textures/ghost_baseColor.png"
    },
    {
      "uri": "textures/ghost_metallicRoughness.png"
    },
    {
      "uri": "textures/ghost_normal.png"
    }
  ],
  "materials": [
    {
      "alphaMode": "BLEND",
      "doubleSided": true,
      "name": "ghost",
      "normalTexture": {
        "index": 2,
        "scale": 1,
        "texCoord": 0
      },
      "occlusionTexture": {
        "index": 1,
        "strength": 1,
        "texCoord": 0
      },
      "pbrMetallicRoughness": {
        "baseColorFactor": [
          1,
          1,
          1,
          1
        ],
        "baseColorTexture": {
          "index": 0,
          "texCoord": 0
        },
        "metallicFactor": 0,
        "metallicRoughnessTexture": {
          "index": 1,
          "texCoord": 0
        },
        "roughnessFactor": 1
      }
    }
  ],
  "meshes": [
    {
      "name": "pCylinder1_ghost_0",
      "primitives": [
        {
          "attributes": {
            "NORMAL": 1,
            "POSITION": 0,
            "TANGENT": 2,
            "TEXCOORD_0": 3
          },
          "indices": 4,
          "material": 0,
          "mode": 4
        }
      ]
    }
  ],
  "nodes": [
    {
      "children": [
        1
      ],
      "name": "RootNode (gltf orientation matrix)",
      "rotation": [
        -0.70710678118654746,
        -0,
        -0,
        0.70710678118654757
      ]
    },
    {
      "children": [
        2
      ],
      "name": "RootNode (model correction matrix)"
    },
    {
      "children": [
        3
      ],
      "matrix": [
        1,
        0,
        0,
        0,
        0,
        0,
        1,
        0,
        0,
        -1,
        0,
        0,
        0,
        0,
        0,
        1
      ],
      "name": "2d08d9dac1bb463fbc6ceb459bb1e94c.fbx"
    },
    {
      "children": [
        4
      ],
      "name": "RootNode"
    },
    {
      "children": [
        5
      ],
      "matrix": [
        5.6662602424621582,
        0,
        0,
        0,
        0,
        5.6662602424621582,
        0,
        0,
        0,
        0,
        5.6662602424621582,
        0,
        0,
        34.782966613769531,
        0,
        1
      ],
      "name": "pCylinder1"
    },
    {
      "mesh": 0,
      "name": "pCylinder1_ghost_0"
    }
  ],
  "samplers": [
    {
      "magFilter": 9729,
      "minFilter": 9987,
      "wrapS": 10497,
      "wrapT": 10497
    }
  ],
  "scene": 0,
  "scenes": [
    {
      "name": "OSG_Scene",
      "nodes": [
        0
      ]
    }
  ],
  "textures": [
    {
      "sampler": 0,
      "source": 0
    },
    {
      "sampler": 0,
      "source": 1
    },
    {
      "sampler": 0,
      "source": 2
    }
  ]
}

